<svg id="visual" viewBox="0 0 900 600" width="900" height="600" xmlns="http://www.w3.org/2000/svg" xmlns:xlink="http://www.w3.org/1999/xlink" version="1.1"><rect x="0" y="0" width="900" height="600" fill="#ad2900"></rect><defs><linearGradient id="grad1_0" x1="33.3%" y1="100%" x2="100%" y2="0%"><stop offset="20%" stop-color="#ff9c9c" stop-opacity="1"></stop><stop offset="80%" stop-color="#ff9c9c" stop-opacity="1"></stop></linearGradient></defs><defs><linearGradient id="grad1_1" x1="33.3%" y1="100%" x2="100%" y2="0%"><stop offset="20%" stop-color="#ff9c9c" stop-opacity="1"></stop><stop offset="80%" stop-color="#dc6253" stop-opacity="1"></stop></linearGradient></defs><defs><linearGradient id="grad1_2" x1="33.3%" y1="100%" x2="100%" y2="0%"><stop offset="20%" stop-color="#ad2900" stop-opacity="1"></stop><stop offset="80%" stop-color="#dc6253" stop-opacity="1"></stop></linearGradient></defs><defs><linearGradient id="grad2_0" x1="0%" y1="100%" x2="66.7%" y2="0%"><stop offset="20%" stop-color="#ff9c9c" stop-opacity="1"></stop><stop offset="80%" stop-color="#ff9c9c" stop-opacity="1"></stop></linearGradient></defs><defs><linearGradient id="grad2_1" x1="0%" y1="100%" x2="66.7%" y2="0%"><stop offset="20%" stop-color="#dc6253" stop-opacity="1"></stop><stop offset="80%" stop-color="#ff9c9c" stop-opacity="1"></stop></linearGradient></defs><defs><linearGradient id="grad2_2" x1="0%" y1="100%" x2="66.7%" y2="0%"><stop offset="20%" stop-color="#dc6253" stop-opacity="1"></stop><stop offset="80%" stop-color="#ad2900" stop-opacity="1"></stop></linearGradient></defs><g transform="translate(900, 600)"><path d="M-513.8 0C-482.5 -79 -451.1 -158 -412.2 -238C-373.3 -318 -326.9 -398.8 -256.9 -445C-186.9 -491.1 -93.5 -502.4 0 -513.8L0 0Z" fill="#c6452e"></path><path d="M-342.5 0C-321.6 -52.7 -300.8 -105.4 -274.8 -158.7C-248.9 -212 -217.9 -265.9 -171.3 -296.6C-124.6 -327.4 -62.3 -335 0 -342.5L0 0Z" fill="#ef7e78"></path><path d="M-171.3 0C-160.8 -26.3 -150.4 -52.7 -137.4 -79.3C-124.4 -106 -109 -132.9 -85.6 -148.3C-62.3 -163.7 -31.2 -167.5 0 -171.3L0 0Z" fill="#ff9c9c"></path></g><g transform="translate(0, 0)"><path d="M513.8 0C487.1 81.7 460.4 163.4 420.9 243C381.4 322.6 329.2 400.2 256.9 445C184.6 489.7 92.3 501.8 0 513.8L0 0Z" fill="#c6452e"></path><path d="M342.5 0C324.7 54.5 306.9 108.9 280.6 162C254.3 215.1 219.4 266.8 171.3 296.6C123.1 326.5 61.5 334.5 0 342.5L0 0Z" fill="#ef7e78"></path><path d="M171.3 0C162.4 27.2 153.5 54.5 140.3 81C127.1 107.5 109.7 133.4 85.6 148.3C61.5 163.2 30.8 167.3 0 171.3L0 0Z" fill="#ff9c9c"></path></g></svg>